<svg xmlns="http://www.w3.org/2000/svg" width="60" height="60"><defs><clipPath id="a"><path d="M0 0h60v60H0z" style="fill:#fff;stroke:#707070" transform="translate(1777 6935)"/></clipPath></defs><g style="clip-path:url(#a)" transform="translate(-1777 -6935)"><path d="M1777 6935h60v60h-60z" class="c"/><path d="M1806.962 6961.648a2.26 2.26 0 1 0 2.26 2.26 2.26 2.26 0 0 0-2.26-2.26Zm-2.6 5.651a.806.806 0 0 0-.815.742 2.265 2.265 0 0 0 .52 1.642 3.621 3.621 0 0 0 2.9 1.006 3.621 3.621 0 0 0 2.9-1.006 2.265 2.265 0 0 0 .52-1.642.806.806 0 0 0-.82-.742Z" class="d"/><path d="M1810.256 6958.257h.662a1.7 1.7 0 0 1 1.7 1.7v11.3a1.7 1.7 0 0 1-1.7 1.7h-7.907a1.7 1.7 0 0 1-1.7-1.7v-11.305a1.7 1.7 0 0 1 1.7-1.7h.662a1.7 1.7 0 0 1 1.594-1.125h3.391a1.7 1.7 0 0 1 1.598 1.13Zm-6.588 1.13h-.657a.565.565 0 0 0-.565.565v11.3a.565.565 0 0 0 .565.565h7.911a.565.565 0 0 0 .565-.565v-11.3a.565.565 0 0 0-.565-.565h-.662a1.7 1.7 0 0 1-1.6 1.13h-3.393a1.7 1.7 0 0 1-1.599-1.13Zm1.034-.56a.565.565 0 0 0 .565.565h3.391a.565.565 0 0 0 0-1.13h-3.391a.565.565 0 0 0-.565.565Z" class="d"/><g style="stroke:#353432;fill:none" transform="translate(1777 6935)"><circle cx="30" cy="30" r="30" class="i"/><circle cx="30" cy="30" r="29.5" class="c"/></g><g style="stroke:#635e4f;fill:none" transform="translate(1782 6940)"><circle cx="25" cy="25" r="25" class="i"/><circle cx="25" cy="25" r="24.5" class="c"/></g><g style="stroke:#736746;fill:none" transform="translate(1790 6948)"><circle cx="17" cy="17" r="17" class="i"/><circle cx="17" cy="17" r="16.5" class="c"/></g><path d="m-10008.18-17713.625-14.442 14.441" style="stroke:#deaa1a;stroke-linecap:round;stroke-width:4px;fill:none" transform="translate(11822.106 24671.711)"/></g></svg>