<svg xmlns="http://www.w3.org/2000/svg" xmlns:xlink="http://www.w3.org/1999/xlink" width="50" height="50" viewBox="0 0 50 50">
  <defs>
    <clipPath id="clip-path">
      <rect id="Rectangle_1028" data-name="Rectangle 1028" width="50" height="50" transform="translate(2085 5852)" fill="#be2e2e"/>
    </clipPath>
  </defs>
  <g id="Mask_Group_13" data-name="Mask Group 13" transform="translate(-2085 -5852)" clip-path="url(#clip-path)">
    <g id="Group_295905" data-name="Group 295905" transform="translate(52.757 10.023)">
      <g id="users-solid-badged" transform="translate(2032.243 5854.202)">
        <path id="Path_6985" data-name="Path 6985" d="M14.539,16.142H13.376a11.59,11.59,0,0,0-8.6,3.369l-.321.374V30.954H9.914V24.671l.735-.829.334-.388a14.7,14.7,0,0,1,6.3-3.823,8.8,8.8,0,0,1-2.74-3.489Z" transform="translate(-4.46 -1.456)" fill="#e0c356"/>
        <path id="Path_6986" data-name="Path 6986" d="M34.546,19.481a11.59,11.59,0,0,0-8.6-3.369,14,14,0,0,0-1.457.08,8.81,8.81,0,0,1-2.674,3.275,14.585,14.585,0,0,1,6.684,4.01l.334.374.722.829v6.3h5.267V19.855Z" transform="translate(2.961 -1.466)" fill="#e0c356"/>
        <path id="Path_6987" data-name="Path 6987" d="M12.478,16.932h.414A8.622,8.622,0,0,1,17.05,8.523a5.468,5.468,0,1,0-4.572,8.462Z" transform="translate(-3.602 -6.05)" fill="#e0c356"/>
        <path id="Path_6988" data-name="Path 6988" d="M25.351,14.955A5.975,5.975,0,1,1,19.375,8.98,5.975,5.975,0,0,1,25.351,14.955Z" transform="translate(-0.797 -4.835)" fill="#e0c356"/>
        <path id="Path_6989" data-name="Path 6989" d="M20.589,20.3a12.954,12.954,0,0,0-9.5,3.609l-.334.374v8.462a2.1,2.1,0,0,0,2.139,2.059h15.36a2.1,2.1,0,0,0,2.139-2.059V24.313l-.321-.4A12.807,12.807,0,0,0,20.589,20.3Z" transform="translate(-1.717 -0.056)" fill="#e0c356"/>
        <path id="Path_6990" data-name="Path 6990" d="M25.427,15.656a8.744,8.744,0,0,1,0,.922,5.468,5.468,0,0,0,.775.067h.254a5.414,5.414,0,0,0,3.369-1.337A10.026,10.026,0,0,1,22.954,6.86,5.521,5.521,0,0,0,21.47,8.384,8.729,8.729,0,0,1,25.427,15.656Z" transform="translate(2.371 -5.735)" fill="#e0c356"/>
      </g>
      <path id="ac277b4b2cbd569222dad1dfb4ba55a6" d="M24.557,11.176a1.291,1.291,0,0,0-.271-.426L20.412,6.876a1.3,1.3,0,0,0-1.834,1.834l1.679,1.666H7.874A3.874,3.874,0,0,0,4,14.249v5.165a1.291,1.291,0,1,0,2.583,0V14.249a1.291,1.291,0,0,1,1.291-1.291H20.257l-1.679,1.666a1.3,1.3,0,1,0,1.834,1.834l3.874-3.874a1.335,1.335,0,0,0,.271-1.407Z" transform="translate(2057.589 5838.504)" fill="#e0c356"/>
    </g>
  </g>
</svg>
