<svg xmlns="http://www.w3.org/2000/svg" width="31.572" height="20.296" viewBox="0 0 31.572 20.296">
  <path id="a02dfc69be13291199b39906b2abd737" d="M53.526,120.457a4.229,4.229,0,1,0-4.305-4.228A4.28,4.28,0,0,0,53.526,120.457Zm-11.48,0a4.229,4.229,0,1,0-4.305-4.228A4.28,4.28,0,0,0,42.045,120.457Zm0,3.1c-3.373,0-10.045,1.621-10.045,4.933V132.3H52.3V128.49C52.3,125.178,45.418,123.557,42.045,123.557Zm11.48.775a7.658,7.658,0,0,0-1.23.07c1.651,1.2,2.255,1.973,2.255,4.087V132.3h9.02V128.49c0-3.312-6.673-4.158-10.045-4.158Z" transform="translate(-32 -112)" fill="#e4d4a0"/>
</svg>
