<svg id="Group_6178" data-name="Group 6178" xmlns="http://www.w3.org/2000/svg" xmlns:xlink="http://www.w3.org/1999/xlink" width="143.215" height="138.161" viewBox="0 0 143.215 138.161">
  <defs>
    <linearGradient id="linear-gradient" x1="0.077" y1="-0.02" x2="0.936" y2="0.895" gradientUnits="objectBoundingBox">
      <stop offset="0" stop-color="#f9efa1"/>
      <stop offset="1" stop-color="#b98948"/>
    </linearGradient>
    <linearGradient id="linear-gradient-2" x1="0.329" y1="-0.013" x2="0.855" y2="1.067" xlink:href="#linear-gradient"/>
    <linearGradient id="linear-gradient-3" x1="0.039" y1="-0.01" x2="0.646" y2="0.814" xlink:href="#linear-gradient"/>
    <linearGradient id="linear-gradient-4" x1="0.183" y1="0.09" x2="1.126" y2="0.947" xlink:href="#linear-gradient"/>
    <linearGradient id="linear-gradient-5" x1="0.051" y1="0.032" x2="0.83" y2="1.054" gradientUnits="objectBoundingBox">
      <stop offset="0" stop-color="#f5e89b"/>
      <stop offset="1" stop-color="#bd8f4d"/>
    </linearGradient>
    <linearGradient id="linear-gradient-6" x1="0.5" y1="0" x2="0.5" y2="1" xlink:href="#linear-gradient"/>
    <linearGradient id="linear-gradient-7" x1="0.084" y1="-0.031" x2="0.917" y2="1.031" xlink:href="#linear-gradient"/>
    <linearGradient id="linear-gradient-8" x1="0.275" y1="0.055" x2="0.768" y2="0.973" xlink:href="#linear-gradient"/>
    <linearGradient id="linear-gradient-9" x1="0.274" y1="0.055" x2="0.767" y2="0.973" xlink:href="#linear-gradient"/>
    <linearGradient id="linear-gradient-10" x1="0.209" y1="0.055" x2="0.769" y2="0.951" xlink:href="#linear-gradient"/>
    <linearGradient id="linear-gradient-11" x1="0.111" y1="-0.02" x2="0.712" y2="0.811" xlink:href="#linear-gradient"/>
    <linearGradient id="linear-gradient-12" x1="0.22" y1="-0.084" x2="0.964" y2="0.862" xlink:href="#linear-gradient"/>
    <linearGradient id="linear-gradient-13" x1="0.09" y1="-0.029" x2="0.907" y2="1.026" xlink:href="#linear-gradient"/>
    <linearGradient id="linear-gradient-14" x1="0.042" y1="-0.006" x2="0.958" y2="1.004" xlink:href="#linear-gradient"/>
  </defs>
  <g id="Group_92" data-name="Group 92" transform="translate(8.927 88.728)">
    <path id="Path_52" data-name="Path 52" d="M132.991,58.828a.7.7,0,0,1,.046-.182c1.048-1.048,2.119-2.1,3.167-3.144a4.113,4.113,0,0,1,.433-.342,6.292,6.292,0,0,1,.57.478,6.913,6.913,0,0,0,4.123,1.936,11.931,11.931,0,0,0,3.121.046A4.119,4.119,0,0,0,147.822,55a8.632,8.632,0,0,0,.684-3.03c.046-.82.068-1.64.068-2.438a1.472,1.472,0,0,1,.547-1.253c.57-.5,1.116-1.025,1.663-1.572a1.419,1.419,0,0,0-.387-2.278.834.834,0,0,0-.41-.091h-.843a.927.927,0,0,0-.683.273c-.137.114-.251.228-.365.342a13.051,13.051,0,0,1-6.789,3.691,8.9,8.9,0,0,1-5.445-.5,6.2,6.2,0,0,1-3.577-3.713,14.8,14.8,0,0,1-.775-4.215V24.77a4.165,4.165,0,0,1,.046-.752.63.63,0,0,1,.547-.57,4.194,4.194,0,0,1,.752-.068H137c1.185,0,1.253.068,1.253,1.23V37.026c0,.524-.023,1.071,0,1.595.091.843.182,1.686.342,2.506a4.486,4.486,0,0,0,1.572,2.62,2.612,2.612,0,0,0,1.435.661,7.94,7.94,0,0,0,2.438-.068,4.057,4.057,0,0,0,1.777-.934,7.573,7.573,0,0,0,2.392-3.9A14.044,14.044,0,0,0,148.6,36V24.268c.046-.638.251-.82.888-.888h4.647c1.094,0,1.162.068,1.185,1.23V47.916A20.352,20.352,0,0,1,154.451,54a15.294,15.294,0,0,1-1.276,2.939,9.5,9.5,0,0,1-5.194,4.351,13.5,13.5,0,0,1-6.311.752,18.7,18.7,0,0,1-5.992-1.617c-.752-.365-1.481-.8-2.233-1.207a3.392,3.392,0,0,1-.456-.342Z" transform="translate(-29.826 -12.695)" fill="url(#linear-gradient)"/>
    <path id="Path_53" data-name="Path 53" d="M124.056,23.868c.114-.205.273-.159.387-.159a34.028,34.028,0,0,1,5.445.114,3.516,3.516,0,0,1,.137.524c.023.228,0,.456,0,.683V47.15a2.272,2.272,0,0,1-.182,1.3,1.185,1.185,0,0,1-.82.182H126.4a1.872,1.872,0,0,1-1.367-.524c-.592-.57-1.185-1.139-1.777-1.686a1.1,1.1,0,0,0-1.572-.114A12.848,12.848,0,0,1,115.4,49a14.592,14.592,0,0,1-12.074-3.212,11.032,11.032,0,0,1-2.119-2.483,12.609,12.609,0,0,1-2.1-6.926,13.064,13.064,0,0,1,3.531-9.158,11.561,11.561,0,0,1,3.987-2.779,15.249,15.249,0,0,1,11.117-.524,12.913,12.913,0,0,1,4.989,3.076c.137.137.273.273.433.41a.927.927,0,0,0,.683.273h.752c.592.023.911-.387,1.207-.8a1.575,1.575,0,0,0-.228-1.5c-.365-.387-.775-.752-1.139-1.116a1.525,1.525,0,0,1-.365-.41ZM114.6,44.85c.775-.068,1.572-.091,2.347-.228a7.518,7.518,0,0,0,4.306-2.46,7.022,7.022,0,0,0,1.731-3.144,12.324,12.324,0,0,0,.251-4.283A11.086,11.086,0,0,0,122.894,33a7.443,7.443,0,0,0-2.3-3.463,6.882,6.882,0,0,0-3.144-1.709,12.432,12.432,0,0,0-5.1-.114,6.807,6.807,0,0,0-3.417,1.731c-.251.228-.478.478-.729.706a7.649,7.649,0,0,0-1.936,3.417,10.375,10.375,0,0,0-.273,3.349,8.329,8.329,0,0,0,4.055,6.812,6,6,0,0,0,1.936.8,16.511,16.511,0,0,0,2.6.319Z" transform="translate(-71.239 -13.046)" fill="url(#linear-gradient-2)"/>
    <path id="Path_54" data-name="Path 54" d="M114.588,28.554a9.849,9.849,0,0,0-5.194-7.45,19.108,19.108,0,0,0-5.878-2,32.447,32.447,0,0,0-5.559-.41H87.569a1.95,1.95,0,0,0-.524.114,2.285,2.285,0,0,0-.159,1.207v33.58a2.936,2.936,0,0,0,.137.57,4.465,4.465,0,0,0,.456.068h5.581a4.463,4.463,0,0,0,.456-.068,2.538,2.538,0,0,0,.114-1.071V42.816a1.881,1.881,0,0,1,.524-1.207,2.086,2.086,0,0,1,1.64-.729h4.465a24.017,24.017,0,0,0,4.784-.5,16.377,16.377,0,0,0,5.445-2.187,7.969,7.969,0,0,0,2.871-3.03,10.059,10.059,0,0,0,1.207-6.584Zm-6.88,3.827a6.115,6.115,0,0,1-3.076,4.123,5.951,5.951,0,0,1-2.392.8c-.729.091-1.458.137-2.187.159-1.412.023-2.8,0-4.215,0a2.092,2.092,0,0,1-1.709-.775,1.921,1.921,0,0,1-.478-1.048c-.023-.251,0-.5,0-.752V26.8a4.828,4.828,0,0,0-.091-1,.823.823,0,0,0-.661-.683c-.251-.046-.5-.091-.752-.114h-1a1.3,1.3,0,0,1-1.367-1.367,1.237,1.237,0,0,1,.342-1.071,1.4,1.4,0,0,1,1.048-.456h8.361a12.022,12.022,0,0,1,2.848.342,7.565,7.565,0,0,1,4.26,2.711,5.735,5.735,0,0,1,1.185,2.757,12.139,12.139,0,0,1-.068,4.442Z" transform="translate(-86.876 -18.69)" fill="url(#linear-gradient-3)"/>
    <path id="Path_55" data-name="Path 55" d="M123.6,26.354c.387-.046.683-.068.98-.091a7.581,7.581,0,0,0,1.754-.251,2.436,2.436,0,0,0,1.139-.683c.478-.547.98-1.094,1.435-1.663.524-.638,1.025-1.276,1.5-1.936a1.379,1.379,0,0,1,1.276-.638c.683.023,1.344,0,2.028,0,.365,0,.5.137.547.5.023.228,0,.456,0,.683v2.438a1.456,1.456,0,0,0,1.458,1.526c.888.046,1.8,0,2.711,0a2.148,2.148,0,0,1,1,.137,2.433,2.433,0,0,1,.137.98v1.094a2.01,2.01,0,0,1-.114.98,1.5,1.5,0,0,1-1.071.205h-7.176a1.167,1.167,0,0,0-1.253,1.276c0,.342-.091.683.137.98a1.254,1.254,0,0,0,1.139.615c.342-.023.683,0,1,0,.228,0,.456,0,.683.023.957.114,1.162.547,1.276,1.116.046.342.068.661.091,1v7.336a11.012,11.012,0,0,0,.205,2.6,3.32,3.32,0,0,0,.365.934,1.783,1.783,0,0,0,1.777.911c.5-.046,1,0,1.526,0a3.621,3.621,0,0,1,.16.456,39.835,39.835,0,0,1,.5,4.716,1.125,1.125,0,0,1-.365.114,16.987,16.987,0,0,1-6.219-.934,6.461,6.461,0,0,1-3.645-3.326,10.871,10.871,0,0,1-1.025-4.055c-.023-.5-.023-1-.023-1.526V31.138a1.5,1.5,0,0,0-1.549-1.526h-1.526a2.6,2.6,0,0,1-.592-.046.417.417,0,0,1-.364-.41c0-.706-.023-1.412,0-2.119a6.265,6.265,0,0,1,.091-.775Z" transform="translate(-40.069 -15.623)" fill="url(#linear-gradient-4)"/>
    <path id="Path_56" data-name="Path 56" d="M113.886,23.8a2.976,2.976,0,0,1,.5-.091h5.149a.724.724,0,0,1,.205.068c.023.228-.137.319-.251.41-.319.319-.638.638-.98.934a1.271,1.271,0,0,0-.433,1.048,1.4,1.4,0,0,0,.5,1.185,1.049,1.049,0,0,0,.752.3h.16a1.758,1.758,0,0,0,1.572-.615,13.225,13.225,0,0,1,5.946-3.531,10.182,10.182,0,0,1,6.06.159c.114.023.205.091.319.114a.992.992,0,0,1,.752,1.071v5.49c0,.046-.046.091-.046.159-.159.091-.251,0-.365-.114-.365-.342-.729-.706-1.116-1.025a7.765,7.765,0,0,0-4.055-1.754,13.913,13.913,0,0,0-3.372,0,5.5,5.5,0,0,0-4.556,4.67c-.046.592-.091,1.185-.091,1.777V47.042c0,.319,0,.615-.023.934a.588.588,0,0,1-.524.57,2.483,2.483,0,0,1-.592.068h-4.556c-.889,0-.98-.114-1-.957V24.966c0-.365.046-.729.068-1.139Z" transform="translate(-52.411 -13.029)" fill="url(#linear-gradient-5)"/>
  </g>
  <g id="Group_122" data-name="Group 122" transform="translate(0 0)">
    <path id="Path_51" data-name="Path 51" d="M82.237,9.737c-5.377-5.422-11.869-7.2-19.2-4.784C55.286,7.527,50.183,14.931,50.16,23.771a19.6,19.6,0,0,0,3.691,10.89q6.9,9.705,13.851,19.433c.775,1.094,1.617,1.094,2.392,0q6.835-9.6,13.692-19.2a20.063,20.063,0,0,0,3.782-11.3A18.165,18.165,0,0,0,82.237,9.737ZM59.523,32.724h0v-.091a5.3,5.3,0,0,1,.091-.866,1.311,1.311,0,0,1,.068-.3c.068-.319.114-.729.159-1.048a1.325,1.325,0,0,1,.365.114,1.47,1.47,0,0,0,.364.046c.068.137.137.3.228.456a10.734,10.734,0,0,1,.3,2.87A13.168,13.168,0,0,1,59.569,32.7Zm6.242,3.258a13.365,13.365,0,0,1-3.713-1.435c.159-.683,1.3-5.354,1.936-3.782,0,0,1.458,4.488,1.959,4.853A2.376,2.376,0,0,0,65.765,35.982Zm2.62.342a10.367,10.367,0,0,1-1.185-.091c-.228-.205-.478-.478-.319-.683,0,0,.137-.114-.137-.365,0,0-1.686-4.442-1.526-5.787a12.023,12.023,0,0,0,.251-2.46A2.87,2.87,0,0,1,66.654,24.8l-.068-.091s.114-.182.159-.251c0,0,.592.866.82,1.116,0,0-.3.934.478,1.048,0,0,.82,1.025-.091,1.663,0,0-.866.547-.615,2.187l.228.091a3.645,3.645,0,0,1,.319,1.549s-.251.3.091,1.23a11.494,11.494,0,0,1,.433,2s0,.524.159.592c0,0-.137.068-.182.387Zm4.123-.456a27.3,27.3,0,0,0,.319-4.078c.205-2.665.41-2.46.41-2.46.683,1.207,1.207,4.67,1.367,5.787A17.7,17.7,0,0,1,72.509,35.868Zm2.119-7.313s.3.023.114-.57a3.3,3.3,0,0,1,.091-1.731s0,.661.228.592a1.186,1.186,0,0,1,.205.456s-.114.342.387,1a1.476,1.476,0,0,1,.387.8.681.681,0,0,0,.228.5.567.567,0,0,1,.114.159,9.733,9.733,0,0,0-1.344,1.5,16.025,16.025,0,0,0-.433-2.734Zm2.483,2.392c.068.137.592.866.615.888a2.291,2.291,0,0,0-1.595-.433,5.774,5.774,0,0,1,1-.433Zm-1.686,3.782a14.506,14.506,0,0,1-.182-2.574,2.271,2.271,0,0,0,.934.046,4.5,4.5,0,0,1,1.549.182,1.321,1.321,0,0,1,.205.638,13.407,13.407,0,0,1-2.506,1.686Zm4.055-3.235-.046-.068a4.046,4.046,0,0,0-.866.456,3.558,3.558,0,0,1-.182-1.823,1.545,1.545,0,0,0,.273-.273h.365a2.036,2.036,0,0,0-.775-1.731h0l-.114-.114c-.273-.182-.046-.524.251-.843.205.068.159-.159.159-.159a4.753,4.753,0,0,1,.5-.433,1.074,1.074,0,0,0,.068.888,1.178,1.178,0,0,1,0-.683.765.765,0,0,0,.273.8c-.478-.8.843-2.574.843-2.574,1.868-.82,0-1.23,0-1.23-.82-1.23-1.435-.3-1.435-.3s-.706-.5-1.185-.251.3,1.481.3,1.481c.319.41-.5.752-.5.752-1.048.41-.524.957-.524.957a2.616,2.616,0,0,0-.228,1.936,2.6,2.6,0,0,1,.137,1.071c-.41-.182-.547-1.207-.547-1.207-.091-.957-.319-1.162-.319-1.162-.205-.228-.159-.273-.159-.273.137,0,.091-.046.091-.046-.137-.137-.137-.98-.137-.98a1.857,1.857,0,0,0-1.139-1.777c.046-.114,0-.137,0-.137a.225.225,0,0,1-.046-.137c0-.159-.137-.114-.137-.114A.629.629,0,0,1,74.673,23c.182-.137.137-.478.137-.478-.228-.98-1.116-.387-1.116-.387l-.433-.068a.348.348,0,0,0,.159.524l.114-.046c-.068.068-.046.3-.046.3-.159-.068-.046.456-.046.456-.046.068.023.273.023.273l-.114.137c-.046-.638-1.025-1.481-1.025-1.481a.379.379,0,0,1-.205-.387,2.055,2.055,0,0,0-.068-.661c-.251-1.025-.023-1.253-.023-1.253a.707.707,0,0,0,.159-.524c-.046-.478-.205-.273-.205-.273,0-.205-.159-.091-.159-.091-.114-.137-.3.114-.3.114a.233.233,0,0,0-.159.319,1.365,1.365,0,0,0,.068.387,1.98,1.98,0,0,1,.091.888h.091l-.046.957a.731.731,0,0,0-.114.068.9.9,0,0,0,.114.524,4.99,4.99,0,0,0,.228.592c.866,1.5.137,4.739.137,4.739-.319.911.046.775.046.775-.41.8-.342,4.078-.342,4.078,0,1.709-.091,3.053-.114,3.6a14.526,14.526,0,0,1-2.46.251.914.914,0,0,0-.182-.365.61.61,0,0,0-.046-.433,3.93,3.93,0,0,1,.365-1.709,1.155,1.155,0,0,0,.091-.775,16.962,16.962,0,0,0,.456-1.959h.273a5.1,5.1,0,0,0-.159-1.253s-.091-.159.091-.683a7.111,7.111,0,0,0,.091-2.028s.706-.342-.319-1.412c0,0-.159-.046.433-1.139a1.809,1.809,0,0,0,.3-.843s-.046-.091.273-.478a3.085,3.085,0,0,0,.5-1.185.592.592,0,0,1,.205-.319h0a3.312,3.312,0,0,1,.046-.524c0-.182.023-.342.023-.5-.023.3-.137.273-.137.273-.068-.023,0-.251,0-.251.137-.342.046-.342.046-.342-.068,0-.159.41-.159.41-.091.342-.205.342-.205.342-.091,0-.068-.114-.068-.114.068-.342-.091-.273-.091-.273-.046,0-.046.091-.046.091v.091a.783.783,0,0,0,.068.57c.137.251-.159.615-.159.615-.57.729-.547.957-.547.957a.6.6,0,0,1-.159.41,1.265,1.265,0,0,0-.3.615c-.387-1.139-1-.957-1-.957-.775,0-.911,1.709-.911,1.709-.3-.114-.8-.866-.8-.866a1.2,1.2,0,0,0,.319-.683,4.852,4.852,0,0,1,.387-1.23.292.292,0,0,0,.046-.3,2.934,2.934,0,0,1-.137-.273c-.228-.342-.319-.251-.319-.251-.023,0,.068.159.091.205-.228-.342-.251-.273-.251-.273-.068,0-.023.091,0,.114-.091-.182-.137-.159-.137-.159-.068.046,0,.228.046.273-.068-.137-.137-.137-.137-.137-.114.114.273.638.273.638a.177.177,0,0,1,.068.228,3.971,3.971,0,0,1-.592,1.094,2.028,2.028,0,0,0-.5-.661c-.342-.387-.319-.57-.319-.57a.27.27,0,0,0-.091-.273.7.7,0,0,1-.182-.159,3.616,3.616,0,0,1-.251-.365c-.159-.342-.228-.251-.228-.251-.068.114.137.3.137.3a.252.252,0,0,0,.068.159.409.409,0,0,0-.228.068c-.251-.137-.3-.068-.3-.068a.11.11,0,0,0,0,.091c-.137-.068-.137-.023-.137-.023-.046.068.091.114.091.114a.992.992,0,0,1,.3.205c0,.068.114.137.114.137.137.319.273.319.273.319.137.046.205.251.205.251a3.653,3.653,0,0,0,.752,1.367c.023.182-.3.456-.3.456a.032.032,0,0,0-.046,0c0,.137-.182.205-.182.205a1.124,1.124,0,0,0-.615.456c-.046-.137-.091,0-.091,0a1.909,1.909,0,0,1,.342-.888c.046-.046,0-.046,0-.046a.071.071,0,0,0,.046-.091c.023,0,.023-.046.023-.046.046.046.023-.023.023-.023v-.046a.388.388,0,0,0-.046-.3V23.52c-.114-.3-.273-.251-.273-.251H65.2a.387.387,0,0,0-.3-.046c.068-.091-.091,0-.091,0a.185.185,0,0,1,.114-.159c-.114,0-.159.182-.159.182-.319-.046-.251.046-.251.046-.091.023-.046.068-.046.068-.205.114-.137.182-.137.182-.091.046-.046.068-.046.068-.068.068,0,.091,0,.091.023.046,0,.046,0,.046-.091.068-.023.114-.023.114a.234.234,0,0,1,0,.182c-.068,0-.023.068-.023.068a.338.338,0,0,1,0,.228c-.046.159.068.159.068.159a.55.55,0,0,1,.046.456,1.551,1.551,0,0,1-.273-.068.339.339,0,0,1,0,.159,1.216,1.216,0,0,0-.752-.615c-.387-.137-.41-.273-.41-.273,0-.068-.068,0-.068,0a1.637,1.637,0,0,0-.547-.524.88.88,0,0,0-.182-.478c-.342-.5-.159-.729-.159-.729a.4.4,0,0,0,.068-.319.223.223,0,0,1-.023-.159c0-.205-.114-.091-.114-.091a.063.063,0,0,1-.091,0c-.3-.342-.319.023-.319.023-.137,0-.091.114-.091.114.023.046,0,.068,0,.068-.068.068,0,.159,0,.159-.091.046,0,.159,0,.159a.393.393,0,0,1,.114.3c-.091,1.094.365,1.39.365,1.39a3.691,3.691,0,0,1,.547.547.088.088,0,0,0,0,.114c.706.661.638.752.638.752,0,.205.023.433.023.433.342,2.119-.41,2.962-.41,2.962-.228.273-.046.3-.046.3h0a6.153,6.153,0,0,1-.456,1.185c-.205.57-.433,1.207-.547,1.572a6.777,6.777,0,0,0-.046-1.481v-.091a1.453,1.453,0,0,0,.137-.205s.091-.114-.182-.433a3.685,3.685,0,0,0-.547-1.64,1.919,1.919,0,0,1,0-1.731,1.45,1.45,0,0,0,.41.729,5.052,5.052,0,0,1,.456.661,2.46,2.46,0,0,0,.387.456c.433.387.342.114.342.114-.046-.046.023-.091.023-.091.3-.387-.365-.524-.365-.524-.205-.023-.273-.3-.273-.3-.251-1.048-.5-1.253-.5-1.253a1.666,1.666,0,0,1-.365-.706c-.182-.98-.866-.706-.866-.706a.5.5,0,0,1-.478-.137.271.271,0,0,1,0-.41c.137-.114.091-.205.091-.205v-.159c0-.205-.091-.228-.091-.228-.114-.046-.091-.137-.091-.137.023-.159-.091-.114-.091-.114-.114,0-.205-.251-.205-.251-.137-.387-.706-.114-.706-.114h-.046v.046h-.023a1.328,1.328,0,0,0-.365.615,1.932,1.932,0,0,0,.023.615,1.923,1.923,0,0,1-.8-.683,1.656,1.656,0,0,0-.524-.547c-.82-.57-.706-.843-.706-.843.068-.387-.068-.387-.068-.387a.426.426,0,0,1-.205-.091c-.182-.114-.182.068-.182.068,0,.046-.023.046-.023.046a.084.084,0,0,0-.068.046.222.222,0,0,0,.023.205c.068.068.046.114.046.114,0,.137.068.159.068.159a2.131,2.131,0,0,1,.478.57c.57,1.094.934,1.162.934,1.162a2.784,2.784,0,0,1,.934,1.162,2.514,2.514,0,0,0,.046,1.116.867.867,0,0,0,.182.387.341.341,0,0,1-.137.478c.387.046.387-.387.387-.387a2,2,0,0,1-.046.319.783.783,0,0,0,.091-.365.774.774,0,0,0,.091-.342,2.451,2.451,0,0,1,.251.478,1.447,1.447,0,0,1,0,.98,5.1,5.1,0,0,1-.251.638,3.877,3.877,0,0,0-.342,1.025,1.943,1.943,0,0,0,0,.957.182.182,0,0,0,.251.137h0a8.442,8.442,0,0,0,.228,1.526A13.951,13.951,0,0,1,68.841,8.439h.114a13.718,13.718,0,0,1,5.627,1.23h.068a13.968,13.968,0,0,1,4.784,21.8Z" transform="translate(43.842 -3.896)" fill="url(#linear-gradient-6)"/>
    <g id="Group_93" data-name="Group 93" transform="translate(0 33.726)">
      <path id="Path_57" data-name="Path 57" d="M28.472,18.791a2.649,2.649,0,0,1,.41-.091h5.582a2,2,0,0,1,.456.091,4.664,4.664,0,0,1,.114.547v33.6a2.8,2.8,0,0,1-.114,1.207,4.025,4.025,0,0,1-.456.091H28.882a1.956,1.956,0,0,1-.387-.068,1.679,1.679,0,0,1-.182-1.094V38.816a2.1,2.1,0,0,0-2-2H13.117a1.346,1.346,0,0,0-1.39,1.458,1.45,1.45,0,0,0,.524,1.185,1,1,0,0,0,.683.273h1a6.227,6.227,0,0,1,.911.114.8.8,0,0,1,.661.683,3.416,3.416,0,0,1,.091.843V53.351c0,.251-.046.5-.068.775a3.348,3.348,0,0,1-.592.114h-5.4c-.159,0-.319-.046-.524-.068-.046-.205-.091-.41-.114-.592V20.09a3.1,3.1,0,0,1,.137-1.276,6.575,6.575,0,0,1,.661-.091h5.149a4.407,4.407,0,0,1,.615.091,1.342,1.342,0,0,1,.159.866v11.8a2.12,2.12,0,0,0,2.05,1.959h8.543a2.165,2.165,0,0,0,1.823-1.048,1.523,1.523,0,0,0,.228-.706,6.318,6.318,0,0,0,.023-.934v-10.8a2.393,2.393,0,0,1,.159-1.162Z" transform="translate(-8.898 -18.7)" fill="url(#linear-gradient-7)"/>
      <path id="Path_58" data-name="Path 58" d="M66.167,42.288a39.227,39.227,0,0,1,3.668,3.6c-.023.228-.251.3-.387.387A18.751,18.751,0,0,1,62.5,48.94a17.949,17.949,0,0,1-10.935-1.572A12.529,12.529,0,0,1,45.5,41.7a11.771,11.771,0,0,1,.091-11.482,12.564,12.564,0,0,1,6.7-5.787,16.7,16.7,0,0,1,5.741-1.3,15.233,15.233,0,0,1,9.659,2.711,10.524,10.524,0,0,1,4.1,6.2,13.076,13.076,0,0,1,.342,3.759v.342a.987.987,0,0,1-.934.934,6.318,6.318,0,0,1-.934.023H49.058a1.376,1.376,0,0,0-1.048.433,1.645,1.645,0,0,0-.342,1.709,1.459,1.459,0,0,0,1.253.888h2.21a.817.817,0,0,1,.8.5,7.5,7.5,0,0,0,1.39,1.891,6.9,6.9,0,0,0,3.964,2.1,13.869,13.869,0,0,0,4.944-.068,6.572,6.572,0,0,0,3.463-1.823c.159-.159.342-.273.547-.456ZM58.58,33.7h5.4a1.645,1.645,0,0,0,1.367-1.481,3.27,3.27,0,0,0-.888-2.46,5.978,5.978,0,0,0-3.121-1.914,11.293,11.293,0,0,0-4.192-.205,6.652,6.652,0,0,0-5.012,3.6A1.76,1.76,0,0,0,52.5,33.38a1.5,1.5,0,0,0,1.094.342H58.58Z" transform="translate(36.037 -13.059)" fill="url(#linear-gradient-8)"/>
      <path id="Path_59" data-name="Path 59" d="M43.2,42.262a37.465,37.465,0,0,1,3.691,3.668c-.182.137-.387.3-.57.433a18.236,18.236,0,0,1-6.4,2.506,18.048,18.048,0,0,1-11.641-1.663,12.445,12.445,0,0,1-5.855-5.741,11.857,11.857,0,0,1,.137-11.117,12.458,12.458,0,0,1,6.014-5.582,18.091,18.091,0,0,1,5.673-1.549,15.654,15.654,0,0,1,8.452,1.435,10.584,10.584,0,0,1,5.878,6.607,13.531,13.531,0,0,1,.57,4.579v.251a1.021,1.021,0,0,1-1.048,1c-.273.023-.57,0-.843,0H26.041a1.525,1.525,0,0,0-1.048.456,1.387,1.387,0,0,0-.342,1.618,1.36,1.36,0,0,0,1.276.957h2.028a.923.923,0,0,1,1,.592,7.751,7.751,0,0,0,5.331,3.918,13.856,13.856,0,0,0,5.126-.091,6.428,6.428,0,0,0,3.235-1.731,6.815,6.815,0,0,1,.592-.5Zm-7.632-8.589h5.4a1.651,1.651,0,0,0,1.412-1.526,3.375,3.375,0,0,0-.866-2.392,5.794,5.794,0,0,0-2.62-1.777,10.352,10.352,0,0,0-3.918-.456A6.734,6.734,0,0,0,29.3,30.939a2.746,2.746,0,0,0-.251,1.8.635.635,0,0,0,.159.3,1.6,1.6,0,0,0,1.367.683c1.663-.023,3.326,0,4.989,0Z" transform="translate(6.701 -13.056)" fill="url(#linear-gradient-9)"/>
      <path id="Path_60" data-name="Path 60" d="M84.652,26.378A39.282,39.282,0,0,1,80.985,30a3.634,3.634,0,0,1-.524-.365A6.712,6.712,0,0,0,78.5,28.519a14.122,14.122,0,0,0-7.45-.843,3.353,3.353,0,0,0-2.21,1.116,1.356,1.356,0,0,0-.387,1v.5a1.219,1.219,0,0,0,.365.911A4.115,4.115,0,0,0,70.3,32.3c1.071.433,2.141.866,3.212,1.253,1.435.524,2.87,1,4.306,1.481a22.345,22.345,0,0,1,3.531,1.595,10.557,10.557,0,0,1,2.187,1.549,5.31,5.31,0,0,1,1.64,2.871,3.521,3.521,0,0,1-.114,1.823,5.621,5.621,0,0,1-1.777,2.62A12.148,12.148,0,0,1,79.8,47.519a22.558,22.558,0,0,1-5.718,1.39,20.45,20.45,0,0,1-3.121.137A18.656,18.656,0,0,1,61.8,46.2c-.182-.114-.365-.251-.592-.41a5.894,5.894,0,0,1,1.139-1.23c.41-.433.843-.843,1.253-1.253.41-.387.8-.775,1.23-1.185a1.37,1.37,0,0,1,.319.159,9.379,9.379,0,0,0,4.465,2.073,17.757,17.757,0,0,0,5.377.273,7.769,7.769,0,0,0,1.572-.342,3.446,3.446,0,0,0,1.663-1.23l.137-.205A2.647,2.647,0,0,0,78,40.32a4.4,4.4,0,0,0-1.481-1.094,21.6,21.6,0,0,0-3.076-1.116c-1.367-.41-2.757-.8-4.124-1.185a21.41,21.41,0,0,1-3.85-1.5,10,10,0,0,1-2.119-1.39,4.507,4.507,0,0,1-1.5-4.852,6.031,6.031,0,0,1,2.415-3.463,13.289,13.289,0,0,1,4.146-1.845,19.908,19.908,0,0,1,13.054.706,17.693,17.693,0,0,1,2.757,1.458c.137.091.273.205.456.319Z" transform="translate(57.966 -13.073)" fill="url(#linear-gradient-10)"/>
      <path id="Path_61" data-name="Path 61" d="M54.437,30.587a5.358,5.358,0,0,1-.752-.683,7.777,7.777,0,0,0-4.1-2.187,11.768,11.768,0,0,0-4.283-.023,5.5,5.5,0,0,0-4.169,4.374q-.1.923-.137,1.845v13.92c-.046.5-.228.683-.729.752a3.694,3.694,0,0,1-.5.023h-4.4c-.957,0-1.071-.114-1.094-1.071V24.914a1.946,1.946,0,0,1,.159-1.116,3.54,3.54,0,0,1,.524-.114h4.989a1.391,1.391,0,0,1,.3.068c.046.228-.114.3-.205.387-.387.365-.775.752-1.162,1.116A1.529,1.529,0,0,0,39.4,27.6c.683.046,1.412.251,1.959-.387a7.169,7.169,0,0,1,.843-.82,13.387,13.387,0,0,1,6.857-3.212,9.991,9.991,0,0,1,3.189.159,7.476,7.476,0,0,1,1.845.547.7.7,0,0,1,.456.57c.023.228.068.456.068.661v4.807c0,.205.046.456-.182.638Z" transform="translate(23.527 -13.068)" fill="url(#linear-gradient-11)"/>
    </g>
  </g>
  <g id="Group_94" data-name="Group 94" transform="translate(59.056 77.543)">
    <path id="Path_62" data-name="Path 62" d="M76.146,28.418a.446.446,0,0,0-.5-.5h-2.1a.288.288,0,0,1-.319-.319v-.888a.288.288,0,0,1,.319-.319H81.09a.288.288,0,0,1,.319.319V27.6a.288.288,0,0,1-.319.319H77.718s-.137,0-.159.046a.323.323,0,0,0-.046.137.167.167,0,0,0,.046.137.192.192,0,0,0,.159.046h.365a.567.567,0,0,1,.433.159.624.624,0,0,1,.159.433v8.384a.288.288,0,0,1-.319.319H76.465a.288.288,0,0,1-.319-.319V28.44Z" transform="translate(-73.23 -26.39)" fill="url(#linear-gradient-12)"/>
    <path id="Path_63" data-name="Path 63" d="M79.656,30.308a.446.446,0,0,0,.5.5h2.3a.446.446,0,0,0,.5-.5v-3.6a.288.288,0,0,1,.319-.319h1.891a.288.288,0,0,1,.319.319V37.234a.288.288,0,0,1-.319.319H83.278a.288.288,0,0,1-.319-.319v-4.4a.446.446,0,0,0-.5-.5H78.722s-.137,0-.159.046a.324.324,0,0,0-.046.137.167.167,0,0,0,.046.137.192.192,0,0,0,.159.046h.365a.567.567,0,0,1,.433.159.624.624,0,0,1,.159.433v3.964a.288.288,0,0,1-.319.319H77.469a.288.288,0,0,1-.319-.319V26.732a.288.288,0,0,1,.319-.319H79.36a.288.288,0,0,1,.319.319v3.6Z" transform="translate(-68.22 -26.39)" fill="url(#linear-gradient-13)"/>
    <path id="Path_64" data-name="Path 64" d="M88.049,36.027a.288.288,0,0,1,.319.319v.888a.288.288,0,0,1-.319.319h-6.47a.288.288,0,0,1-.319-.319V26.709a.288.288,0,0,1,.319-.319h6.47a.288.288,0,0,1,.319.319V27.6a.288.288,0,0,1-.319.319H82.855s-.137,0-.159.046a.228.228,0,0,0,0,.273.192.192,0,0,0,.159.046h.365a.567.567,0,0,1,.433.159.624.624,0,0,1,.159.433v1.207a.567.567,0,0,0,.159.433.624.624,0,0,0,.433.159h2.779a.288.288,0,0,1,.319.319v.888a.288.288,0,0,1-.319.319H84.4a.567.567,0,0,0-.433.159.624.624,0,0,0-.159.433V35.5a.567.567,0,0,0,.159.433.624.624,0,0,0,.433.159h3.691Z" transform="translate(-62.966 -26.39)" fill="url(#linear-gradient-14)"/>
  </g>
</svg>
