<svg xmlns="http://www.w3.org/2000/svg" width="68.677" height="68.677" viewBox="0 0 68.677 68.677"><g transform="translate(0)"><rect width="68.677" height="68.677" rx="7" transform="translate(0)" fill="#fafafa"/><g transform="translate(4.862 4.862)"><g transform="translate(34.034 0)"><g transform="translate(0)"><rect width="2.431" height="3.039" transform="translate(0)"/></g></g><g transform="translate(25.526 3.039)"><g transform="translate(0 0)"><rect width="2.431" height="3.039" transform="translate(0)"/></g></g><g transform="translate(27.957 3.039)"><g transform="translate(0 0)"><rect width="3.039" height="3.039"/></g></g><g transform="translate(30.996 3.039)"><g transform="translate(0 0)"><rect width="3.039" height="3.039"/></g></g><g transform="translate(34.034 3.039)"><g transform="translate(0 0)"><rect width="2.431" height="3.039" transform="translate(0)"/></g></g><g transform="translate(22.487 6.078)"><g transform="translate(0 0)"><rect width="3.039" height="2.431"/></g></g><g transform="translate(25.526 6.078)"><g transform="translate(0 0)"><rect width="2.431" height="2.431" transform="translate(0)"/></g></g><g transform="translate(34.034 6.078)"><g transform="translate(0 0)"><rect width="2.431" height="2.431" transform="translate(0)"/></g></g><g transform="translate(22.487 8.509)"><g transform="translate(0 0)"><rect width="3.039" height="3.039"/></g></g><g transform="translate(22.487 11.547)"><g transform="translate(0 0)"><rect width="3.039" height="3.039"/></g></g><g transform="translate(25.526 11.547)"><g transform="translate(0 0)"><rect width="2.431" height="3.039" transform="translate(0)"/></g></g><g transform="translate(34.034 11.547)"><g transform="translate(0 0)"><rect width="2.431" height="3.039" transform="translate(0)"/></g></g><g transform="translate(22.487 14.586)"><g transform="translate(0 0)"><rect width="3.039" height="2.431"/></g></g><g transform="translate(27.957 14.586)"><g transform="translate(0 0)"><rect width="3.039" height="2.431"/></g></g><g transform="translate(30.996 14.586)"><g transform="translate(0 0)"><rect width="3.039" height="2.431"/></g></g><g transform="translate(22.487 17.017)"><g transform="translate(0 0)"><rect width="3.039" height="2.431"/></g></g><g transform="translate(27.957 17.017)"><g transform="translate(0 0)"><rect width="3.039" height="2.431"/></g></g><g transform="translate(34.034 17.017)"><g transform="translate(0 0)"><rect width="2.431" height="2.431" transform="translate(0)"/></g></g><g transform="translate(22.487 19.448)"><g transform="translate(0 0)"><rect width="3.039" height="3.039"/></g></g><g transform="translate(0 22.487)"><g transform="translate(0 0)"><rect width="3.039" height="3.039"/></g></g><g transform="translate(6.078 22.487)"><g transform="translate(0 0)"><rect width="2.431" height="3.039"/></g></g><g transform="translate(8.509 22.487)"><g transform="translate(0 0)"><rect width="3.039" height="3.039"/></g></g><g transform="translate(11.547 22.487)"><g transform="translate(0 0)"><rect width="3.039" height="3.039"/></g></g><g transform="translate(14.586 22.487)"><g transform="translate(0 0)"><rect width="2.431" height="3.039"/></g></g><g transform="translate(17.017 22.487)"><g transform="translate(0 0)"><rect width="2.431" height="3.039" transform="translate(0)"/></g></g><g transform="translate(25.526 22.487)"><g transform="translate(0 0)"><rect width="2.431" height="3.039" transform="translate(0)"/></g></g><g transform="translate(27.957 22.487)"><g transform="translate(0 0)"><rect width="3.039" height="3.039"/></g></g><g transform="translate(30.996 22.487)"><g transform="translate(0 0)"><rect width="3.039" height="3.039"/></g></g><g transform="translate(39.504 22.487)"><g transform="translate(0 0)"><rect width="2.431" height="3.039"/></g></g><g transform="translate(41.935 22.487)"><g transform="translate(0 0)"><rect width="3.039" height="3.039"/></g></g><g transform="translate(44.974 22.487)"><g transform="translate(0 0)"><rect width="2.431" height="3.039"/></g></g><g transform="translate(47.405 22.487)"><g transform="translate(0 0)"><rect width="3.039" height="3.039"/></g></g><g transform="translate(50.444 22.487)"><g transform="translate(0 0)"><rect width="3.039" height="3.039"/></g></g><g transform="translate(3.039 25.526)"><g transform="translate(0 0)"><rect width="3.039" height="2.431"/></g></g><g transform="translate(6.078 25.526)"><g transform="translate(0 0)"><rect width="2.431" height="2.431"/></g></g><g transform="translate(8.509 25.526)"><g transform="translate(0 0)"><rect width="3.039" height="2.431"/></g></g><g transform="translate(19.448 25.526)"><g transform="translate(0 0)"><rect width="3.039" height="2.431"/></g></g><g transform="translate(22.487 25.526)"><g transform="translate(0 0)"><rect width="3.039" height="2.431"/></g></g><g transform="translate(30.996 25.526)"><g transform="translate(0 0)"><rect width="3.039" height="2.431"/></g></g><g transform="translate(34.034 25.526)"><g transform="translate(0 0)"><rect width="2.431" height="2.431" transform="translate(0)"/></g></g><g transform="translate(36.466 25.526)"><g transform="translate(0 0)"><rect width="3.039" height="2.431"/></g></g><g transform="translate(39.504 25.526)"><g transform="translate(0 0)"><rect width="2.431" height="2.431"/></g></g><g transform="translate(47.405 25.526)"><g transform="translate(0 0)"><rect width="3.039" height="2.431"/></g></g><g transform="translate(50.444 25.526)"><g transform="translate(0 0)"><rect width="3.039" height="2.431"/></g></g><g transform="translate(55.914 25.526)"><g transform="translate(0 0)"><rect width="3.039" height="2.431"/></g></g><g transform="translate(0 27.957)"><g transform="translate(0 0)"><rect width="3.039" height="3.039"/></g></g><g transform="translate(8.509 27.957)"><g transform="translate(0 0)"><rect width="3.039" height="3.039"/></g></g><g transform="translate(14.586 27.957)"><g transform="translate(0 0)"><rect width="2.431" height="3.039"/></g></g><g transform="translate(17.017 27.957)"><g transform="translate(0 0)"><rect width="2.431" height="3.039" transform="translate(0)"/></g></g><g transform="translate(19.448 27.957)"><g transform="translate(0 0)"><rect width="3.039" height="3.039"/></g></g><g transform="translate(25.526 27.957)"><g transform="translate(0 0)"><rect width="2.431" height="3.039" transform="translate(0)"/></g></g><g transform="translate(34.034 27.957)"><g transform="translate(0 0)"><rect width="2.431" height="3.039" transform="translate(0)"/></g></g><g transform="translate(39.504 27.957)"><g transform="translate(0 0)"><rect width="2.431" height="3.039"/></g></g><g transform="translate(41.935 27.957)"><g transform="translate(0 0)"><rect width="3.039" height="3.039"/></g></g><g transform="translate(55.914 27.957)"><g transform="translate(0 0)"><rect width="3.039" height="3.039"/></g></g><g transform="translate(11.547 30.996)"><g transform="translate(0 0)"><rect width="3.039" height="3.039"/></g></g><g transform="translate(14.586 30.996)"><g transform="translate(0 0)"><rect width="2.431" height="3.039"/></g></g><g transform="translate(19.448 30.996)"><g transform="translate(0 0)"><rect width="3.039" height="3.039"/></g></g><g transform="translate(25.526 30.996)"><g transform="translate(0 0)"><rect width="2.431" height="3.039" transform="translate(0)"/></g></g><g transform="translate(27.957 30.996)"><g transform="translate(0 0)"><rect width="3.039" height="3.039"/></g></g><g transform="translate(30.996 30.996)"><g transform="translate(0 0)"><rect width="3.039" height="3.039"/></g></g><g transform="translate(34.034 30.996)"><g transform="translate(0 0)"><rect width="2.431" height="3.039" transform="translate(0)"/></g></g><g transform="translate(36.466 30.996)"><g transform="translate(0 0)"><rect width="3.039" height="3.039"/></g></g><g transform="translate(39.504 30.996)"><g transform="translate(0 0)"><rect width="2.431" height="3.039"/></g></g><g transform="translate(47.405 30.996)"><g transform="translate(0 0)"><rect width="3.039" height="3.039"/></g></g><g transform="translate(50.444 30.996)"><g transform="translate(0 0)"><rect width="3.039" height="3.039"/></g></g><g transform="translate(53.483 30.996)"><g transform="translate(0 0)"><rect width="2.431" height="3.039"/></g></g><g transform="translate(3.039 34.034)"><g transform="translate(0 0)"><rect width="3.039" height="2.431"/></g></g><g transform="translate(8.509 34.034)"><g transform="translate(0 0)"><rect width="3.039" height="2.431"/></g></g><g transform="translate(14.586 34.034)"><g transform="translate(0 0)"><rect width="2.431" height="2.431"/></g></g><g transform="translate(17.017 34.034)"><g transform="translate(0 0)"><rect width="2.431" height="2.431" transform="translate(0)"/></g></g><g transform="translate(19.448 34.034)"><g transform="translate(0 0)"><rect width="3.039" height="2.431"/></g></g><g transform="translate(27.957 34.034)"><g transform="translate(0 0)"><rect width="3.039" height="2.431"/></g></g><g transform="translate(34.034 34.034)"><g transform="translate(0 0)"><rect width="2.431" height="2.431" transform="translate(0)"/></g></g><g transform="translate(41.935 34.034)"><g transform="translate(0 0)"><rect width="3.039" height="2.431"/></g></g><g transform="translate(50.444 34.034)"><g transform="translate(0 0)"><rect width="3.039" height="2.431"/></g></g><g transform="translate(22.487 36.465)"><g transform="translate(0 0)"><rect width="3.039" height="3.039"/></g></g><g transform="translate(25.526 36.465)"><g transform="translate(0 0)"><rect width="2.431" height="3.039" transform="translate(0)"/></g></g><g transform="translate(34.034 36.465)"><g transform="translate(0 0)"><rect width="2.431" height="3.039" transform="translate(0)"/></g></g><g transform="translate(41.935 36.465)"><g transform="translate(0 0)"><rect width="3.039" height="3.039"/></g></g><g transform="translate(50.444 36.465)"><g transform="translate(0 0)"><rect width="3.039" height="3.039"/></g></g><g transform="translate(53.483 36.465)"><g transform="translate(0 0)"><rect width="2.431" height="3.039"/></g></g><g transform="translate(55.914 36.465)"><g transform="translate(0 0)"><rect width="3.039" height="3.039"/></g></g><g transform="translate(27.957 39.504)"><g transform="translate(0 0)"><rect width="3.039" height="2.431"/></g></g><g transform="translate(30.996 39.504)"><g transform="translate(0 0)"><rect width="3.039" height="2.431"/></g></g><g transform="translate(36.466 39.504)"><g transform="translate(0 0)"><rect width="3.039" height="2.431"/></g></g><g transform="translate(44.974 39.504)"><g transform="translate(0 0)"><rect width="2.431" height="2.431"/></g></g><g transform="translate(50.444 39.504)"><g transform="translate(0 0)"><rect width="3.039" height="2.431"/></g></g><g transform="translate(55.914 39.504)"><g transform="translate(0 0)"><rect width="3.039" height="2.431"/></g></g><g transform="translate(22.487 41.935)"><g transform="translate(0 0)"><rect width="3.039" height="3.039"/></g></g><g transform="translate(25.526 41.935)"><g transform="translate(0 0)"><rect width="2.431" height="3.039" transform="translate(0)"/></g></g><g transform="translate(41.935 41.935)"><g transform="translate(0 0)"><rect width="3.039" height="3.039"/></g></g><g transform="translate(44.974 41.935)"><g transform="translate(0 0)"><rect width="2.431" height="3.039"/></g></g><g transform="translate(50.444 41.935)"><g transform="translate(0 0)"><rect width="3.039" height="3.039"/></g></g><g transform="translate(53.483 41.935)"><g transform="translate(0 0)"><rect width="2.431" height="3.039"/></g></g><g transform="translate(22.487 44.974)"><g transform="translate(0)"><rect width="3.039" height="2.431"/></g></g><g transform="translate(25.526 44.974)"><g transform="translate(0)"><rect width="2.431" height="2.431" transform="translate(0)"/></g></g><g transform="translate(30.996 44.974)"><g transform="translate(0)"><rect width="3.039" height="2.431"/></g></g><g transform="translate(36.466 44.974)"><g transform="translate(0)"><rect width="3.039" height="2.431"/></g></g><g transform="translate(44.974 44.974)"><g transform="translate(0)"><rect width="2.431" height="2.431"/></g></g><g transform="translate(50.444 44.974)"><g transform="translate(0)"><rect width="3.039" height="2.431"/></g></g><g transform="translate(22.487 47.405)"><g transform="translate(0 0)"><rect width="3.039" height="3.039"/></g></g><g transform="translate(30.996 47.405)"><g transform="translate(0 0)"><rect width="3.039" height="3.039"/></g></g><g transform="translate(34.034 47.405)"><g transform="translate(0 0)"><rect width="2.431" height="3.039" transform="translate(0)"/></g></g><g transform="translate(36.466 47.405)"><g transform="translate(0 0)"><rect width="3.039" height="3.039"/></g></g><g transform="translate(39.504 47.405)"><g transform="translate(0 0)"><rect width="2.431" height="3.039"/></g></g><g transform="translate(47.405 47.405)"><g transform="translate(0 0)"><rect width="3.039" height="3.039"/></g></g><g transform="translate(22.487 50.444)"><g transform="translate(0 0)"><rect width="3.039" height="3.039"/></g></g><g transform="translate(25.526 50.444)"><g transform="translate(0 0)"><rect width="2.431" height="3.039" transform="translate(0)"/></g></g><g transform="translate(27.957 50.444)"><g transform="translate(0 0)"><rect width="3.039" height="3.039"/></g></g><g transform="translate(34.034 50.444)"><g transform="translate(0 0)"><rect width="2.431" height="3.039" transform="translate(0)"/></g></g><g transform="translate(39.504 50.444)"><g transform="translate(0 0)"><rect width="2.431" height="3.039"/></g></g><g transform="translate(41.935 50.444)"><g transform="translate(0 0)"><rect width="3.039" height="3.039"/></g></g><g transform="translate(25.526 53.483)"><g transform="translate(0 0)"><rect width="2.431" height="2.431" transform="translate(0)"/></g></g><g transform="translate(30.996 53.483)"><g transform="translate(0 0)"><rect width="3.039" height="2.431"/></g></g><g transform="translate(34.034 53.483)"><g transform="translate(0 0)"><rect width="2.431" height="2.431" transform="translate(0)"/></g></g><g transform="translate(36.466 53.483)"><g transform="translate(0 0)"><rect width="3.039" height="2.431"/></g></g><g transform="translate(39.504 53.483)"><g transform="translate(0 0)"><rect width="2.431" height="2.431"/></g></g><g transform="translate(47.405 53.483)"><g transform="translate(0 0)"><rect width="3.039" height="2.431"/></g></g><g transform="translate(55.914 53.483)"><g transform="translate(0 0)"><rect width="3.039" height="2.431"/></g></g><g transform="translate(22.487 55.914)"><g transform="translate(0 0)"><rect width="3.039" height="3.039"/></g></g><g transform="translate(27.957 55.914)"><g transform="translate(0 0)"><rect width="3.039" height="3.039"/></g></g><g transform="translate(34.034 55.914)"><g transform="translate(0 0)"><rect width="2.431" height="3.039" transform="translate(0)"/></g></g><g transform="translate(41.935 55.914)"><g transform="translate(0 0)"><rect width="3.039" height="3.039"/></g></g><g transform="translate(50.444 55.914)"><g transform="translate(0 0)"><rect width="3.039" height="3.039"/></g></g><g transform="translate(0.394 0.393)"><rect width="13.619" height="13.619" transform="translate(2.918 2.918)" fill="none"/><path d="M16.538,0H0V19.456H19.456V0Zm0,16.538H2.918V2.918H16.538Z"/></g><g transform="translate(39.306 0.393)"><rect width="13.619" height="13.619" transform="translate(2.918 2.918)" fill="none"/><path d="M16.538,0H0V19.456H19.456V0Zm0,16.538H2.918V2.918H16.538Z"/></g><g transform="translate(0.394 39.306)"><rect width="13.619" height="13.619" transform="translate(2.918 2.918)" fill="none"/><path d="M16.538,0H0V19.456H19.456V0Zm0,16.538H2.918V2.918H16.538Z"/></g><g transform="translate(6.078 6.078)"><g transform="translate(0 0)"><rect width="8.509" height="8.509"/></g></g><g transform="translate(44.974 6.078)"><g transform="translate(0 0)"><rect width="8.509" height="8.509"/></g></g><g transform="translate(6.078 44.974)"><g transform="translate(0)"><rect width="8.509" height="8.509"/></g></g></g></g></svg>